<svg xmlns="http://www.w3.org/2000/svg" width="17.898" height="24" viewBox="0 0 17.898 24"><defs><style>.a{fill:#27a4a9;}</style></defs><path class="a" d="M19.163,11.7a.391.391,0,0,0-.566,0,.422.422,0,0,0,0,.584l4,4.123a.39.39,0,0,0,.283.121l.008,0,.008,0a.39.39,0,0,0,.318-.175l3.961-4.086a.422.422,0,0,0,0-.584.391.391,0,0,0-.566,0L23.293,15.1V.413a.4.4,0,1,0-.8,0V15.132Z" transform="translate(-13.944)"/><path class="a" d="M19.3,16a.4.4,0,1,0,0,.809h5.288V32.581H8.314V16.809H13.6a.4.4,0,1,0,0-.809H7.5V33.39H25.4V16Z" transform="translate(-7.5 -9.39)"/></svg>